<?xml version="1.0" encoding="utf-8"?>
<!-- Generator: Adobe Illustrator 27.3.1, SVG Export Plug-In . SVG Version: 6.00 Build 0)  -->
<svg version="1.1" id="Layer_1" xmlns="http://www.w3.org/2000/svg" xmlns:xlink="http://www.w3.org/1999/xlink" x="0px" y="0px"
	 viewBox="0 0 767.8 330.7" style="enable-background:new 0 0 767.8 330.7;" xml:space="preserve">
<style type="text/css">
	.st0{fill:url(#SVGID_1_);}
	.st1{fill:url(#SVGID_00000145743154848554397260000003925238557955957418_);}
</style>
<g>
	<path d="M9,271.6V152.7h25.2c9.8,0,17.2,2.7,22.3,8c5.1,5.3,7.6,12.9,7.6,22.7V239c0,11.1-2.7,19.4-8.1,24.6s-13.2,7.9-23.3,7.9H9z
		 M26,168.7v86.9h7.9c4.8,0,8.2-1.2,10.2-3.6c2-2.4,3-6.1,3-11.3v-57.3c0-4.7-1-8.3-2.8-10.9c-1.9-2.6-5.3-3.8-10.4-3.8L26,168.7
		L26,168.7z"/>
	<path d="M80.1,271.6V152.7h50.8v16H97.2v34.9h29.4v16H97.2v34.9h33.7v17H80.1z"/>
	<path d="M197.1,186.9h-17v-3.8c0-3.9-0.9-7.3-2.8-10.1c-1.8-2.8-4.9-4.3-9.3-4.3c-2.3,0-4.2,0.4-5.7,1.3s-2.6,2-3.5,3.3
		c-0.9,1.4-1.5,3.1-1.8,4.9c-0.3,1.8-0.5,3.8-0.5,5.8c0,2.3,0.1,4.3,0.2,5.9c0.2,1.6,0.6,2.9,1.2,4.2s1.6,2.3,2.9,3.2s3,1.8,5.3,2.7
		l13,5.2c3.8,1.4,6.9,3.1,9.2,5.1c2.3,1.9,4.2,4.2,5.5,6.8c1.2,2.7,2.1,5.7,2.5,9.1c0.4,3.4,0.7,7.3,0.7,11.6c0,5-0.5,9.7-1.5,13.9
		s-2.6,7.9-4.8,10.9c-2.3,3.1-5.4,5.6-9.2,7.4c-3.8,1.8-8.4,2.7-13.9,2.7c-4.1,0-8-0.7-11.5-2.2c-3.6-1.5-6.6-3.5-9.2-6
		s-4.6-5.5-6.1-8.9c-1.5-3.4-2.3-7.1-2.3-11.1V238h17v5.3c0,3.1,0.9,5.9,2.8,8.4c1.8,2.5,4.9,3.8,9.3,3.8c2.9,0,5.1-0.4,6.8-1.2
		s2.9-2,3.8-3.6s1.4-3.4,1.6-5.6s0.2-4.6,0.2-7.3c0-3.1-0.1-5.7-0.3-7.7s-0.7-3.6-1.3-4.8c-0.8-1.2-1.8-2.2-3.1-3s-3-1.6-5.1-2.5
		l-12.2-5c-7.4-3-12.3-7-14.8-11.9c-2.5-4.9-3.8-11.2-3.8-18.6c0-4.4,0.6-8.7,1.8-12.7c1.2-4,3.1-7.5,5.5-10.4
		c2.3-2.9,5.3-5.2,8.9-6.9c3.6-1.7,7.9-2.6,12.9-2.6c4.2,0,8.1,0.8,11.6,2.3s6.5,3.6,9.1,6.2c5.1,5.3,7.7,11.5,7.7,18.4L197.1,186.9
		L197.1,186.9z"/>
	<path d="M210.2,271.6V152.7h17v118.9H210.2L210.2,271.6z"/>
	<path d="M242.8,180.7c0-4.8,0.8-9,2.5-12.7s3.9-6.7,6.7-9.2c2.7-2.3,5.7-4.1,9.1-5.3c3.4-1.2,6.8-1.8,10.3-1.8s6.9,0.6,10.3,1.8
		s6.5,3,9.3,5.3c2.7,2.4,4.8,5.5,6.5,9.2c1.7,3.7,2.5,7.9,2.5,12.7v6h-17v-6c0-4.1-1.1-7.1-3.4-9.1c-2.3-1.9-5-2.9-8.1-2.9
		s-5.8,1-8.1,2.9c-2.3,1.9-3.4,5-3.4,9.1v62.8c0,4.1,1.1,7.2,3.4,9.1c2.3,1.9,5,2.9,8.1,2.9s5.8-1,8.1-2.9s3.4-5,3.4-9.1v-22.4
		h-13.5v-15h30.6v37.4c0,5-0.8,9.3-2.5,12.9c-1.7,3.6-3.8,6.5-6.5,8.9c-2.8,2.5-5.9,4.3-9.3,5.5s-6.8,1.8-10.3,1.8
		s-6.9-0.6-10.3-1.8c-3.4-1.2-6.4-3.1-9.1-5.5c-2.8-2.3-5-5.3-6.7-8.9s-2.5-7.9-2.5-12.9L242.8,180.7L242.8,180.7z"/>
	<path d="M314.3,271.6V152.7h16.4l25.7,71.7h0.3v-71.6h17v118.9h-16l-26-71.5h-0.3v71.5H314.3L314.3,271.6z"/>
	<path d="M469.5,185h-17v-3.8c0-3.9-0.9-7.3-2.8-10.1c-1.8-2.8-4.9-4.3-9.3-4.3c-2.3,0-4.2,0.4-5.7,1.3c-1.5,0.9-2.6,2-3.5,3.3
		c-0.9,1.4-1.5,3.1-1.8,4.9c-0.3,1.8-0.5,3.8-0.5,5.8c0,2.3,0.1,4.3,0.2,5.9c0.2,1.6,0.6,2.9,1.2,4.2s1.6,2.3,2.9,3.2s3,1.8,5.3,2.7
		l13,5.2c3.8,1.4,6.9,3.1,9.2,5.1c2.3,1.9,4.2,4.2,5.5,6.8c1.2,2.7,2.1,5.7,2.5,9.1c0.4,3.4,0.7,7.3,0.7,11.6c0,5-0.5,9.7-1.5,13.9
		s-2.6,7.9-4.8,10.9c-2.3,3.1-5.4,5.6-9.2,7.4s-8.4,2.7-13.9,2.7c-4.1,0-8-0.7-11.5-2.2c-3.6-1.5-6.6-3.5-9.2-6s-4.6-5.5-6.1-8.9
		c-1.5-3.4-2.3-7.1-2.3-11.1v-6.4h17v5.3c0,3.1,0.9,5.9,2.8,8.4c1.8,2.5,4.9,3.8,9.3,3.8c2.9,0,5.1-0.4,6.8-1.2
		c1.6-0.8,2.9-2,3.8-3.6s1.4-3.4,1.6-5.6c0.2-2.2,0.2-4.6,0.2-7.3c0-3.1-0.1-5.7-0.3-7.7s-0.7-3.6-1.3-4.8c-0.8-1.2-1.8-2.2-3.1-3
		s-3-1.6-5.1-2.5l-12.2-5c-7.4-3-12.3-7-14.8-11.9c-2.5-4.9-3.8-11.2-3.8-18.6c0-4.4,0.6-8.7,1.8-12.7c1.2-4,3.1-7.5,5.5-10.4
		c2.3-2.9,5.3-5.2,8.9-6.9c3.6-1.7,7.9-2.6,12.9-2.6c4.2,0,8.1,0.8,11.6,2.3c3.5,1.6,6.5,3.6,9.1,6.2c5.1,5.3,7.7,11.5,7.7,18.4
		L469.5,185L469.5,185z"/>
	<path d="M482.2,269.7V150.8h17v50.9h21v-50.9h17v118.9h-17v-52.9h-21v52.9H482.2z"/>
	<path d="M552.3,178.8c0-4.8,0.8-9,2.5-12.7s3.9-6.7,6.7-9.2c2.7-2.3,5.7-4.1,9.1-5.3c3.4-1.2,6.8-1.8,10.3-1.8s6.9,0.6,10.3,1.8
		s6.5,3,9.3,5.3c2.7,2.4,4.8,5.5,6.5,9.2c1.7,3.7,2.5,7.9,2.5,12.7v62.8c0,5-0.8,9.3-2.5,12.9s-3.8,6.5-6.5,8.9
		c-2.8,2.5-5.9,4.3-9.3,5.5s-6.8,1.8-10.3,1.8s-6.9-0.6-10.3-1.8c-3.4-1.2-6.4-3.1-9.1-5.5c-2.8-2.3-5-5.3-6.7-8.9
		s-2.5-7.9-2.5-12.9V178.8z M569.4,241.6c0,4.1,1.1,7.2,3.4,9.1c2.3,1.9,5,2.9,8.1,2.9s5.8-1,8.1-2.9c2.3-1.9,3.4-5,3.4-9.1v-62.8
		c0-4.1-1.1-7.1-3.4-9.1c-2.3-1.9-5-2.9-8.1-2.9s-5.8,1-8.1,2.9c-2.3,1.9-3.4,5-3.4,9.1V241.6z"/>
	<path d="M9,119.9V1h16.4l21.9,63h0.3L69.3,1h16.5v118.9h-17V47.6h-0.3L51.6,98.7h-8.5L26.4,47.6H26v72.3H9z"/>
	<path d="M704.1,150.8v118.9h-16.4l-21.9-63h-0.3l-21.7,63h-16.5V150.8h17v72.3h0.3l16.9-51.1h8.5l16.7,51.1h0.3v-72.3L704.1,150.8
		L704.1,150.8z"/>
	<path d="M102.3,119.9V1h17v118.9H102.3z"/>
	<path d="M135.2,119.9V1h16.4l25.7,71.7h0.3V1h17v118.9h-16l-26.1-71.5h-0.3v71.5H135.2L135.2,119.9z"/>
	<path d="M209.4,119.9V1h16.4l25.7,71.7h0.3V1h17v118.9h-16l-26.1-71.5h-0.3v71.5H209.4L209.4,119.9z"/>
	<path d="M284.2,119.9V1H335v16h-33.7v34.9h29.4v16h-29.4v34.9H335v17C335,119.9,284.2,119.9,284.2,119.9z"/>
	<path d="M338.3,119.9L364.9,1h14.2l26.6,118.9h-17l-5-25.6h-23.2l-5,25.6H338.3L338.3,119.9z M380.4,78.3l-8.4-43.1h-0.3l-8.4,43.1
		H380.4L380.4,78.3z"/>
	<path d="M414,119.9V1h25.5c4.7,0,8.8,0.6,12.4,1.8c3.6,1.2,6.8,3.4,9.7,6.5c2.9,3.1,4.9,6.8,6,10.9c1.1,4.2,1.7,9.8,1.7,17
		c0,5.3-0.3,9.9-0.9,13.5c-0.6,3.7-1.9,7.1-3.9,10.4c-2.3,3.9-5.5,6.9-9.4,9.1c-3.9,2.2-9,3.3-15.4,3.3H431v46.4L414,119.9
		L414,119.9z M431,17v40.4h8.2c3.5,0,6.1-0.5,8-1.5c1.9-1,3.3-2.4,4.2-4.2c0.9-1.7,1.4-3.7,1.6-6.2c0.2-2.5,0.2-5.2,0.2-8.2
		c0-2.8-0.1-5.4-0.2-7.9c-0.1-2.5-0.6-4.7-1.5-6.6c-0.9-1.9-2.2-3.3-4-4.3s-4.3-1.5-7.7-1.5L431,17L431,17z"/>
	<path d="M481,29.1c0-4.8,0.8-9,2.5-12.7s3.9-6.7,6.7-9.2c2.7-2.3,5.7-4.1,9.1-5.3c3.4-1.2,6.8-1.8,10.3-1.8s6.9,0.6,10.3,1.8
		c3.4,1.2,6.5,3,9.3,5.3c2.7,2.4,4.8,5.5,6.5,9.2c1.7,3.7,2.5,7.9,2.5,12.7v62.8c0,5-0.8,9.3-2.5,12.9s-3.8,6.5-6.5,8.8
		c-2.8,2.4-5.9,4.3-9.3,5.5s-6.8,1.8-10.3,1.8s-6.9-0.6-10.3-1.8c-3.4-1.2-6.4-3.1-9.1-5.5c-2.8-2.3-5-5.3-6.7-8.8
		c-1.7-3.6-2.5-7.8-2.5-12.9V29.1z M498,91.9c0,4.1,1.1,7.2,3.4,9.1c2.3,1.9,5,2.9,8.1,2.9s5.8-1,8.1-2.9c2.3-1.9,3.4-5,3.4-9.1
		V29.1c0-4.1-1.1-7.1-3.4-9.1c-2.3-2-5-2.9-8.1-2.9s-5.8,1-8.1,2.9c-2.3,2-3.4,5-3.4,9.1L498,91.9L498,91.9z"/>
	<path d="M553.1,119.9V1h17v101.9h33.7v17H553.1L553.1,119.9z"/>
	<path d="M615.4,119.9V1h17v118.9H615.4z"/>
	<path d="M704.1,35.2h-17v-3.8c0-3.9-0.9-7.3-2.8-10.1c-1.8-2.8-4.9-4.3-9.3-4.3c-2.3,0-4.2,0.5-5.7,1.3s-2.6,2-3.5,3.3
		c-0.9,1.5-1.5,3.1-1.8,4.9c-0.3,1.8-0.5,3.8-0.5,5.8c0,2.3,0.1,4.3,0.2,5.8c0.2,1.6,0.6,3,1.2,4.2s1.6,2.3,2.9,3.2
		c1.3,0.9,3,1.8,5.3,2.7l13,5.2c3.8,1.5,6.8,3.2,9.2,5.1c2.3,2,4.2,4.2,5.5,6.8c1.2,2.7,2.1,5.7,2.5,9.1c0.4,3.4,0.7,7.3,0.7,11.6
		c0,5-0.5,9.7-1.5,13.9s-2.6,7.9-4.8,10.9c-2.3,3.1-5.4,5.6-9.2,7.3s-8.4,2.7-13.9,2.7c-4.1,0-8-0.7-11.5-2.2
		c-3.6-1.4-6.6-3.4-9.2-6c-2.6-2.6-4.6-5.5-6.1-8.9c-1.5-3.4-2.3-7.1-2.3-11.1v-6.3h17v5.3c0,3.1,0.9,5.9,2.8,8.4
		c1.8,2.5,4.9,3.8,9.3,3.8c2.9,0,5.2-0.4,6.8-1.2s2.9-2,3.8-3.6s1.4-3.4,1.6-5.6c0.2-2.2,0.2-4.6,0.2-7.3c0-3.1-0.1-5.7-0.3-7.7
		c-0.2-2-0.7-3.6-1.3-4.8c-0.8-1.2-1.8-2.2-3.1-3s-3-1.6-5.1-2.5l-12.2-5c-7.3-3-12.3-7-14.8-11.9c-2.5-5-3.8-11.2-3.8-18.6
		c0-4.5,0.6-8.7,1.8-12.7c1.2-4,3.1-7.5,5.5-10.4c2.3-2.9,5.3-5.2,8.9-6.9c3.6-1.7,7.9-2.6,12.9-2.6c4.2,0,8.1,0.8,11.6,2.3
		s6.5,3.6,9.1,6.2c5.1,5.3,7.7,11.5,7.7,18.4L704.1,35.2L704.1,35.2z"/>
</g>
<linearGradient id="SVGID_1_" gradientUnits="userSpaceOnUse" x1="0" y1="66.585" x2="767.75" y2="66.585" gradientTransform="matrix(1 0 0 -1 0 332)">
	<stop  offset="0" style="stop-color:#F2EA33"/>
	<stop  offset="3.000000e-02" style="stop-color:#EAE83C"/>
	<stop  offset="7.000000e-02" style="stop-color:#D5E356"/>
	<stop  offset="0.13" style="stop-color:#B3DC80"/>
	<stop  offset="0.2" style="stop-color:#84D1B9"/>
	<stop  offset="0.24" style="stop-color:#63CAE4"/>
	<stop  offset="0.53" style="stop-color:#BF63A2"/>
	<stop  offset="0.69" style="stop-color:#EE3082"/>
	<stop  offset="0.75" style="stop-color:#EE347E"/>
	<stop  offset="0.81" style="stop-color:#EF4072"/>
	<stop  offset="0.87" style="stop-color:#F1555E"/>
	<stop  offset="0.93" style="stop-color:#F47243"/>
	<stop  offset="0.99" style="stop-color:#F89720"/>
	<stop  offset="1" style="stop-color:#F99C1C"/>
</linearGradient>
<polygon class="st0" points="730.6,200.1 730.6,299.4 0,299.4 0,330.7 730.6,330.7 755.2,330.7 767.8,330.7 767.8,200.1 "/>
<g>
	<g>
		<path d="M283.6,586.8v-36h8.2c3.2,0,5.6,0.8,7.3,2.4c1.7,1.6,2.5,3.9,2.5,6.9v16.8c0,3.4-0.9,5.9-2.6,7.5
			c-1.8,1.6-4.3,2.4-7.6,2.4H283.6z M289.1,555.7v26.3h2.6c1.6,0,2.7-0.4,3.3-1.1c0.7-0.7,1-1.9,1-3.4v-17.3c0-1.4-0.3-2.5-0.9-3.3
			c-0.6-0.8-1.7-1.2-3.4-1.2H289.1L289.1,555.7z"/>
		<path d="M306.7,586.8v-36h16.5v4.8h-11v10.6h9.6v4.8h-9.6v10.6h11v5.2H306.7z"/>
		<path d="M344.8,561.2h-5.5V560c0-1.2-0.3-2.2-0.9-3.1c-0.6-0.9-1.6-1.3-3-1.3c-0.8,0-1.4,0.1-1.8,0.4s-0.9,0.6-1.1,1
			c-0.3,0.4-0.5,0.9-0.6,1.5c-0.1,0.6-0.2,1.1-0.2,1.7c0,0.7,0,1.3,0.1,1.8s0.2,0.9,0.4,1.3c0.2,0.4,0.5,0.7,1,1
			c0.4,0.3,1,0.5,1.7,0.8l4.2,1.6c1.2,0.4,2.2,1,3,1.5c0.8,0.6,1.4,1.3,1.8,2c0.4,0.8,0.7,1.7,0.8,2.8c0.1,1,0.2,2.2,0.2,3.5
			c0,1.5-0.2,2.9-0.5,4.2s-0.9,2.4-1.6,3.3c-0.8,0.9-1.8,1.7-3,2.2c-1.2,0.5-2.7,0.8-4.5,0.8c-1.3,0-2.6-0.2-3.8-0.7
			c-1.2-0.4-2.2-1-3-1.8c-0.8-0.8-1.5-1.7-2-2.7c-0.5-1-0.7-2.1-0.7-3.4v-1.9h5.5v1.6c0,0.9,0.3,1.8,0.9,2.5c0.6,0.8,1.6,1.1,3,1.1
			c0.9,0,1.7-0.1,2.2-0.4s0.9-0.6,1.2-1.1c0.3-0.5,0.5-1,0.5-1.7s0.1-1.4,0.1-2.2c0-0.9,0-1.7-0.1-2.3c-0.1-0.6-0.2-1.1-0.4-1.5
			c-0.3-0.4-0.6-0.7-1-0.9s-1-0.5-1.7-0.8l-4-1.5c-2.4-0.9-4-2.1-4.8-3.6c-0.8-1.5-1.2-3.4-1.2-5.6c0-1.3,0.2-2.6,0.6-3.8
			c0.4-1.2,1-2.3,1.8-3.1c0.8-0.9,1.7-1.6,2.9-2.1c1.2-0.5,2.6-0.8,4.2-0.8c1.4,0,2.6,0.2,3.8,0.7s2.1,1.1,3,1.9
			c1.7,1.6,2.5,3.5,2.5,5.6V561.2L344.8,561.2z"/>
		<path d="M349.1,586.8v-36h5.5v36H349.1L349.1,586.8z"/>
		<path d="M359.7,559.3c0-1.4,0.3-2.7,0.8-3.8s1.3-2,2.2-2.8c0.9-0.7,1.9-1.2,3-1.6c1.1-0.4,2.2-0.6,3.3-0.6c1.1,0,2.2,0.2,3.3,0.6
			c1.1,0.4,2.1,0.9,3,1.6c0.9,0.7,1.6,1.7,2.1,2.8c0.5,1.1,0.8,2.4,0.8,3.8v1.8h-5.5v-1.8c0-1.2-0.4-2.2-1.1-2.8s-1.6-0.9-2.6-0.9
			s-1.9,0.3-2.6,0.9c-0.7,0.6-1.1,1.5-1.1,2.8v19c0,1.2,0.4,2.2,1.1,2.8c0.7,0.6,1.6,0.9,2.6,0.9s1.9-0.3,2.6-0.9s1.1-1.5,1.1-2.8
			v-6.8h-4.4V567h10v11.3c0,1.5-0.3,2.8-0.8,3.9c-0.5,1.1-1.3,2-2.1,2.7c-0.9,0.7-1.9,1.3-3,1.7s-2.2,0.6-3.3,0.6s-2.2-0.2-3.3-0.6
			c-1.1-0.4-2.1-0.9-3-1.7c-0.9-0.7-1.6-1.6-2.2-2.7s-0.8-2.4-0.8-3.9L359.7,559.3L359.7,559.3z"/>
		<path d="M383,586.8v-36h5.3l8.4,21.7h0.1v-21.7h5.5v36h-5.2l-8.5-21.6h-0.1v21.6H383L383,586.8z"/>
		<path d="M433.5,560.6H428v-1.2c0-1.2-0.3-2.2-0.9-3.1c-0.6-0.9-1.6-1.3-3-1.3c-0.8,0-1.4,0.1-1.8,0.4c-0.5,0.3-0.9,0.6-1.1,1
			c-0.3,0.4-0.5,0.9-0.6,1.5c-0.1,0.6-0.2,1.1-0.2,1.7c0,0.7,0,1.3,0.1,1.8c0.1,0.5,0.2,0.9,0.4,1.3c0.2,0.4,0.5,0.7,1,1
			s1,0.5,1.7,0.8l4.2,1.6c1.2,0.4,2.2,1,3,1.5c0.8,0.6,1.4,1.3,1.8,2c0.4,0.8,0.7,1.7,0.8,2.8c0.1,1,0.2,2.2,0.2,3.5
			c0,1.5-0.2,2.9-0.5,4.2c-0.3,1.3-0.9,2.4-1.6,3.3c-0.8,0.9-1.8,1.7-3,2.2c-1.2,0.5-2.7,0.8-4.5,0.8c-1.3,0-2.6-0.2-3.8-0.7
			c-1.2-0.4-2.2-1-3-1.8c-0.8-0.8-1.5-1.7-2-2.7c-0.5-1-0.7-2.1-0.7-3.4v-1.9h5.5v1.6c0,0.9,0.3,1.8,0.9,2.5c0.6,0.8,1.6,1.1,3,1.1
			c0.9,0,1.7-0.1,2.2-0.4c0.5-0.3,0.9-0.6,1.2-1.1c0.3-0.5,0.5-1,0.5-1.7c0.1-0.7,0.1-1.4,0.1-2.2c0-0.9,0-1.7-0.1-2.3
			c-0.1-0.6-0.2-1.1-0.4-1.5c-0.3-0.4-0.6-0.7-1-0.9s-1-0.5-1.7-0.8l-4-1.5c-2.4-0.9-4-2.1-4.8-3.6c-0.8-1.5-1.2-3.4-1.2-5.6
			c0-1.3,0.2-2.6,0.6-3.8c0.4-1.2,1-2.3,1.8-3.1c0.8-0.9,1.7-1.6,2.9-2.1c1.2-0.5,2.6-0.8,4.2-0.8c1.4,0,2.6,0.2,3.8,0.7
			s2.1,1.1,3,1.9c1.7,1.6,2.5,3.5,2.5,5.6L433.5,560.6L433.5,560.6z"/>
		<path d="M437.7,586.2v-36h5.5v15.4h6.9v-15.4h5.5v36h-5.5v-16h-6.9v16H437.7z"/>
		<path d="M460.5,558.7c0-1.4,0.3-2.7,0.8-3.8s1.3-2,2.2-2.8c0.9-0.7,1.9-1.2,3-1.6c1.1-0.4,2.2-0.6,3.3-0.6c1.1,0,2.2,0.2,3.3,0.6
			s2.1,0.9,3,1.6c0.9,0.7,1.6,1.7,2.1,2.8c0.5,1.1,0.8,2.4,0.8,3.8v19c0,1.5-0.3,2.8-0.8,3.9s-1.3,2-2.1,2.7c-0.9,0.7-1.9,1.3-3,1.7
			s-2.2,0.6-3.3,0.6c-1.1,0-2.2-0.2-3.3-0.6c-1.1-0.4-2.1-0.9-3-1.7c-0.9-0.7-1.6-1.6-2.2-2.7s-0.8-2.4-0.8-3.9V558.7z M466.1,577.7
			c0,1.2,0.4,2.2,1.1,2.8c0.7,0.6,1.6,0.9,2.6,0.9s1.9-0.3,2.6-0.9c0.7-0.6,1.1-1.5,1.1-2.8v-19c0-1.2-0.4-2.2-1.1-2.8
			c-0.7-0.6-1.6-0.9-2.6-0.9s-1.9,0.3-2.6,0.9c-0.7,0.6-1.1,1.5-1.1,2.8V577.7z"/>
		<path d="M283.6,540.9v-36h5.3l7.1,19h0.1l7.1-19h5.4v36H303v-21.9h-0.1l-5.5,15.5h-2.8l-5.4-15.5h-0.1v21.9H283.6z"/>
		<path d="M509.9,550.3v36h-5.3l-7.1-19h-0.1l-7.1,19h-5.4v-36h5.5v21.9h0.1l5.5-15.5h2.8l5.4,15.5h0.1v-21.9H509.9L509.9,550.3z"/>
		<path d="M314,540.9v-36h5.5v36H314z"/>
		<path d="M324.7,540.9v-36h5.3l8.4,21.7h0.1V505h5.5v36h-5.2l-8.5-21.6h-0.1v21.6H324.7L324.7,540.9z"/>
		<path d="M348.8,540.9v-36h5.3l8.4,21.7h0.1V505h5.5v36H363l-8.5-21.6h-0.1v21.6H348.8L348.8,540.9z"/>
		<path d="M373.2,540.9v-36h16.5v4.8h-11v10.6h9.6v4.8h-9.6v10.6h11v5.2C389.7,540.9,373.2,540.9,373.2,540.9z"/>
		<path d="M390.8,540.9l8.6-36h4.6l8.6,36h-5.5l-1.6-7.7H398l-1.6,7.7H390.8L390.8,540.9z M404.5,528.4l-2.7-13h-0.1l-2.7,13H404.5
			L404.5,528.4z"/>
		<path d="M415.5,540.9v-36h8.3c1.5,0,2.9,0.2,4,0.6c1.2,0.4,2.2,1,3.2,2c0.9,0.9,1.6,2,2,3.3c0.4,1.3,0.5,3,0.5,5.1
			c0,1.6-0.1,3-0.3,4.1c-0.2,1.1-0.6,2.2-1.3,3.1c-0.8,1.2-1.8,2.1-3,2.8c-1.3,0.7-2.9,1-5,1H421v14H415.5L415.5,540.9z M421,509.8
			v12.2h2.7c1.1,0,2-0.2,2.6-0.5c0.6-0.3,1.1-0.7,1.4-1.3c0.3-0.5,0.5-1.1,0.5-1.9s0.1-1.6,0.1-2.5c0-0.8,0-1.6-0.1-2.4
			c0-0.8-0.2-1.4-0.5-2c-0.3-0.6-0.7-1-1.3-1.3s-1.4-0.5-2.5-0.5L421,509.8L421,509.8z"/>
		<path d="M437.3,513.5c0-1.4,0.3-2.7,0.8-3.8c0.5-1.1,1.3-2,2.2-2.8c0.9-0.7,1.9-1.2,3-1.6c1.1-0.4,2.2-0.6,3.3-0.6
			c1.1,0,2.2,0.2,3.3,0.6c1.1,0.4,2.1,0.9,3,1.6c0.9,0.7,1.6,1.7,2.1,2.8c0.5,1.1,0.8,2.4,0.8,3.8v19c0,1.5-0.3,2.8-0.8,3.9
			c-0.5,1.1-1.3,2-2.1,2.7c-0.9,0.7-1.9,1.3-3,1.7c-1.1,0.4-2.2,0.6-3.3,0.6c-1.1,0-2.2-0.2-3.3-0.6c-1.1-0.4-2.1-0.9-3-1.7
			c-0.9-0.7-1.6-1.6-2.2-2.7c-0.5-1.1-0.8-2.4-0.8-3.9V513.5z M442.8,532.5c0,1.2,0.4,2.2,1.1,2.8c0.7,0.6,1.6,0.9,2.6,0.9
			s1.9-0.3,2.6-0.9s1.1-1.5,1.1-2.8v-19c0-1.2-0.4-2.2-1.1-2.8c-0.7-0.6-1.6-0.9-2.6-0.9c-1,0-1.9,0.3-2.6,0.9
			c-0.7,0.6-1.1,1.5-1.1,2.8L442.8,532.5L442.8,532.5z"/>
		<path d="M460.8,540.9v-36h5.5v30.8h11v5.2H460.8L460.8,540.9z"/>
		<path d="M481,540.9v-36h5.5v36H481z"/>
		<path d="M509.9,515.3h-5.5v-1.2c0-1.2-0.3-2.2-0.9-3.1c-0.6-0.9-1.6-1.3-3-1.3c-0.8,0-1.4,0.1-1.8,0.4c-0.5,0.3-0.9,0.6-1.1,1
			c-0.3,0.4-0.5,0.9-0.6,1.5c-0.1,0.6-0.2,1.1-0.2,1.7c0,0.7,0,1.3,0.1,1.8s0.2,0.9,0.4,1.3c0.2,0.4,0.5,0.7,1,1
			c0.4,0.3,1,0.5,1.7,0.8l4.2,1.6c1.2,0.4,2.2,1,3,1.5c0.8,0.6,1.4,1.3,1.8,2c0.4,0.8,0.7,1.7,0.8,2.8c0.1,1,0.2,2.2,0.2,3.5
			c0,1.5-0.2,2.9-0.5,4.2c-0.3,1.3-0.9,2.4-1.6,3.3c-0.8,0.9-1.8,1.7-3,2.2s-2.7,0.8-4.5,0.8c-1.3,0-2.6-0.2-3.8-0.7
			c-1.2-0.4-2.2-1-3-1.8c-0.8-0.8-1.5-1.7-2-2.7c-0.5-1-0.7-2.1-0.7-3.4v-1.9h5.5v1.6c0,0.9,0.3,1.8,0.9,2.5c0.6,0.8,1.6,1.1,3,1.1
			c0.9,0,1.7-0.1,2.2-0.4s0.9-0.6,1.2-1.1c0.3-0.5,0.5-1,0.5-1.7c0.1-0.7,0.1-1.4,0.1-2.2c0-0.9,0-1.7-0.1-2.3
			c-0.1-0.6-0.2-1.1-0.4-1.5c-0.3-0.4-0.6-0.7-1-0.9s-1-0.5-1.7-0.8l-4-1.5c-2.4-0.9-4-2.1-4.8-3.6c-0.8-1.5-1.2-3.4-1.2-5.6
			c0-1.3,0.2-2.6,0.6-3.8c0.4-1.2,1-2.3,1.8-3.1c0.8-0.9,1.7-1.6,2.9-2.1c1.2-0.5,2.6-0.8,4.2-0.8c1.4,0,2.6,0.2,3.8,0.7
			c1.1,0.5,2.1,1.1,3,1.9c1.7,1.6,2.5,3.5,2.5,5.6L509.9,515.3L509.9,515.3z"/>
	</g>
	
		<linearGradient id="SVGID_00000125566036454833183170000004809186770571612084_" gradientUnits="userSpaceOnUse" x1="280.65" y1="-252.9309" x2="530.65" y2="-252.9309" gradientTransform="matrix(1 0 0 -1 0 332)">
		<stop  offset="0" style="stop-color:#F2EA33"/>
		<stop  offset="3.000000e-02" style="stop-color:#EAE83C"/>
		<stop  offset="7.000000e-02" style="stop-color:#D5E356"/>
		<stop  offset="0.13" style="stop-color:#B3DC80"/>
		<stop  offset="0.2" style="stop-color:#84D1B9"/>
		<stop  offset="0.24" style="stop-color:#63CAE4"/>
		<stop  offset="0.53" style="stop-color:#BF63A2"/>
		<stop  offset="0.69" style="stop-color:#EE3082"/>
		<stop  offset="0.75" style="stop-color:#EE347E"/>
		<stop  offset="0.81" style="stop-color:#EF4072"/>
		<stop  offset="0.87" style="stop-color:#F1555E"/>
		<stop  offset="0.93" style="stop-color:#F47243"/>
		<stop  offset="0.99" style="stop-color:#F89720"/>
		<stop  offset="1" style="stop-color:#F99C1C"/>
	</linearGradient>
	<polygon style="fill:url(#SVGID_00000125566036454833183170000004809186770571612084_);" points="518.6,565.2 518.6,595.2 
		280.7,595.2 280.7,604.7 518.6,604.7 526.6,604.7 530.7,604.7 530.7,565.2 	"/>
</g>
</svg>
