<?xml version="1.0" encoding="utf-8"?>
<!-- Generator: Adobe Illustrator 27.4.1, SVG Export Plug-In . SVG Version: 6.00 Build 0)  -->
<svg version="1.1" id="Layer_1" xmlns="http://www.w3.org/2000/svg" xmlns:xlink="http://www.w3.org/1999/xlink" x="0px" y="0px"
	 viewBox="0 0 449.7 602.5" style="enable-background:new 0 0 449.7 602.5;" xml:space="preserve">
<style type="text/css">
	.st0{clip-path:url(#SVGID_00000160889504653222312510000011408495676570893501_);}
	.st1{clip-path:url(#SVGID_00000161619119877596950980000003913278705115585452_);}
	.st2{font-family:'DINCondensed-Regular';}
	.st3{font-size:93.26px;}
	.st4{letter-spacing:-4;}
	.st5{letter-spacing:-2;}
</style>
<g>
	<defs>
		<polygon id="SVGID_1_" points="198.5,534.1 28.8,534.1 27.7,333 28.3,231.2 28.3,33.2 421.6,33.2 421.6,231.2 420.9,329.9 
			422,531 385.9,531.3 385.9,559.3 444.7,558.8 444.6,544.6 444.6,530.5 443.5,329.4 444.1,230.9 444.1,32.9 444.1,19 444.1,5 
			5.6,5 5.6,10.5 5.6,32.9 5.6,230.9 5,332.9 6.1,534 6.2,556.8 6.2,562.3 198.5,562.2 		"/>
	</defs>
	<clipPath id="SVGID_00000124884387722866419040000006653806169219934103_">
		<use xlink:href="#SVGID_1_"  style="overflow:visible;"/>
	</clipPath>
	<g style="clip-path:url(#SVGID_00000124884387722866419040000006653806169219934103_);">
		<g>
			<defs>
				<rect id="SVGID_00000053534068056691561750000000499977478294555573_" y="0" width="449.7" height="567.3"/>
			</defs>
			<clipPath id="SVGID_00000159452414351744387770000010729544889432971433_">
				<use xlink:href="#SVGID_00000053534068056691561750000000499977478294555573_"  style="overflow:visible;"/>
			</clipPath>
			<g style="clip-path:url(#SVGID_00000159452414351744387770000010729544889432971433_);">
				
					<image style="overflow:visible;enable-background:new    ;" width="936" height="1182" xlink:href="12DD03489D4694B8.png"  transform="matrix(0.4804 0 0 0.4804 3.995117e-02 -0.22)">
				</image>
			</g>
		</g>
	</g>
</g>
<g>
	<g>
		<path d="M82.1,196.5V65.6c0-1.9,1.6-3.5,3.5-3.5h13.1c1.5,0,2.8,0.9,3.3,2.3l24.5,70.6h0.4l24.4-70.6c0.5-1.4,1.8-2.3,3.3-2.3
			h13.2c1.9,0,3.5,1.5,3.5,3.5v130.9c0,1.9-1.6,3.5-3.5,3.5h-12.8c-1.9,0-3.5-1.6-3.5-3.5v-80.4H151L132.3,173
			c-0.5,1.4-1.8,2.4-3.3,2.4h-4.9c-1.5,0-2.8-1-3.3-2.4l-18.6-56.8h-0.4v80.4c0,1.9-1.6,3.5-3.5,3.5H85.6
			C83.7,199.9,82.1,198.4,82.1,196.5L82.1,196.5z"/>
		<path d="M189.7,196.5V65.6c0-1.9,1.6-3.5,3.5-3.5h26.2c5.4,0,10.2,0.7,14.3,2.1s7.9,3.9,11.2,7.6c3.4,3.6,5.7,7.8,7,12.7
			c1.3,4.8,1.9,11.4,1.9,19.7c0,6.2-0.4,11.4-1.1,15.7c-0.7,4.3-2.2,8.3-4.6,12c-2.7,4.5-6.3,8-10.8,10.6
			c-4.5,2.5-10.4,3.8-17.8,3.8H213c-1.9,0-3.5,1.6-3.5,3.5v46.9c0,1.9-1.6,3.5-3.5,3.5h-12.8C191.3,200,189.7,198.4,189.7,196.5
			L189.7,196.5z M209.5,84.2v39.9c0,1.9,1.6,3.5,3.5,3.5h6c4,0,7.1-0.6,9.3-1.7c2.2-1.2,3.8-2.8,4.8-4.8c1-1.9,1.6-4.3,1.8-7.2
			c0.2-2.8,0.3-6,0.3-9.5c0-3.2-0.1-6.3-0.2-9.2c-0.1-2.9-0.7-5.4-1.7-7.7c-1-2.2-2.6-3.9-4.6-5c-2.1-1.2-5-1.7-8.9-1.7h-6.8
			C211,80.7,209.5,82.3,209.5,84.2L209.5,84.2z"/>
		<path d="M268.5,196.5V65.6c0-1.9,1.5-3.5,3.5-3.5h12.8c1.9,0,3.5,1.5,3.5,3.5v111.2c0,1.9,1.5,3.5,3.5,3.5h71.2
			c1.9,0,3.5,1.6,3.5,3.5v12.8c0,1.9-1.5,3.5-3.5,3.5H272C270.1,200,268.5,198.4,268.5,196.5L268.5,196.5z"/>
		<path d="M361.7,93.8h-9.4c-1.9,0-3.5-1.6-3.5-3.5l0,0c0-3.5-0.9-6.5-2.6-9.1c-1.8-2.6-4.7-3.8-8.9-3.8c-2.2,0-4,0.4-5.4,1.2
			c-1.4,0.8-2.5,1.8-3.4,3c-0.9,1.3-1.4,2.8-1.8,4.4c-0.3,1.7-0.5,3.4-0.5,5.2c0,2.1,0.1,3.9,0.2,5.3s0.6,2.7,1.2,3.8
			c0.6,1.1,1.6,2.1,2.8,2.8c1.2,0.8,2.9,1.6,5,2.4l12.5,4.7c3.6,1.3,6.5,2.8,8.8,4.6c2.2,1.7,3.9,3.7,5.2,5.9
			c0.1,0.1,0.1,0.2,0.2,0.3c1.1,2.4,1.9,5,2.3,8c0.4,3.1,0.6,6.5,0.6,10.4c0,4.5-0.5,8.7-1.4,12.5c-1,3.9-2.5,7.1-4.6,9.8
			c-2.2,2.8-5.2,5-8.8,6.6s-8,2.4-13.2,2.4c-3.9,0-7.6-0.6-11-1.9c-3.4-1.3-6.3-3.1-8.8-5.4c-2.5-2.3-4.4-5-5.8-8
			c-1.4-3.1-2.1-6.4-2.1-10v-2.2c0-1.9,1.5-3.5,3.5-3.5h9.4c1.9,0,3.5,1.6,3.5,3.5v1.4c0,2.8,0.9,5.3,2.6,7.6
			c1.8,2.2,4.7,3.4,8.9,3.4c2.8,0,4.9-0.4,6.5-1.1c1.5-0.8,2.7-1.8,3.6-3.2s1.4-3.1,1.5-5s0.2-4.1,0.2-6.5c0-2.8-0.1-5.1-0.3-6.9
			c-0.2-1.7-0.6-3-1.1-4.1c-0.1-0.2-0.2-0.3-0.3-0.5c-0.7-1-1.6-1.8-2.8-2.5c-1.2-0.7-2.9-1.4-4.9-2.2l-11.6-4.5
			c-7-2.7-11.7-6.3-14.1-10.7c-2.4-4.5-3.6-10-3.6-16.8c0-4,0.6-7.8,1.8-11.4s2.9-6.7,5.3-9.3c2.2-2.6,5.1-4.7,8.5-6.2
			c3.5-1.5,7.6-2.3,12.4-2.3c4,0,7.7,0.7,11.1,2.1c3.4,1.4,6.2,3.3,8.7,5.6c4.9,4.8,7.3,10.3,7.3,16.5v4.1
			C365.1,92.3,363.6,93.8,361.7,93.8L361.7,93.8z"/>
		<path d="M86.7,341.6V225.7c0-1.9,1.6-3.5,3.5-3.5h22.6c10.1,0,17.8,2.8,23,8.3c5.2,5.5,7.9,13.3,7.9,23.5v57.4
			c0,11.5-2.8,20-8.4,25.4c-5.6,5.5-13.6,8.2-24.1,8.2h-21C88.3,345.1,86.7,343.5,86.7,341.6L86.7,341.6z M104.3,242.3v82.8
			c0,1.9,1.6,3.5,3.5,3.5h4.7c4.9,0,8.4-1.2,10.5-3.7c2.1-2.5,3.1-6.4,3.1-11.6V254c0-4.8-1-8.6-2.9-11.2c-2-2.6-5.5-4-10.7-4h-4.7
			C105.8,238.8,104.3,240.4,104.3,242.3L104.3,242.3z"/>
		<path d="M213.6,257.6h-10.7c-1.9,0-3.5-1.5-3.5-3.5v-0.5c0-4-0.9-7.5-2.9-10.4c-1.9-2.9-5.1-4.4-9.6-4.4c-2.4,0-4.4,0.5-5.9,1.4
			c-1.5,0.9-2.7,2.1-3.6,3.4c-0.9,1.5-1.6,3.2-1.9,5.1c-0.3,1.9-0.5,3.9-0.5,5.9c0,2.4,0.1,4.4,0.3,6c0.2,1.6,0.6,3,1.3,4.3
			c0.7,1.3,1.7,2.4,3,3.3s3.1,1.8,5.4,2.8l13.4,5.4c3.9,1.5,7.1,3.2,9.5,5.3c2.4,2,4.3,4.3,5.7,7c1.3,2.8,2.1,5.9,2.6,9.4
			c0.5,3.5,0.7,7.5,0.7,12c0,5.2-0.5,10-1.6,14.4c-1,4.4-2.7,8.2-5,11.3c-2.4,3.2-5.6,5.8-9.5,7.6s-8.7,2.8-14.3,2.8
			c-4.3,0-8.2-0.8-11.9-2.2s-6.8-3.6-9.5-6.2c-2.6-2.6-4.7-5.7-6.3-9.2c-1.6-3.5-2.3-7.3-2.3-11.5v-3.1c0-1.9,1.6-3.5,3.5-3.5h10.7
			c1.9,0,3.5,1.5,3.5,3.5v2.1c0,3.2,0.9,6.1,2.9,8.7c1.9,2.6,5.1,3.9,9.6,3.9c3,0,5.3-0.4,7-1.3c1.7-0.9,3-2.1,3.9-3.7
			s1.5-3.5,1.6-5.8s0.3-4.7,0.3-7.5c0-3.2-0.1-5.9-0.3-7.9c-0.2-2.1-0.7-3.7-1.4-5c-0.8-1.3-1.9-2.3-3.2-3.1
			c-1.3-0.8-3.1-1.7-5.3-2.6l-12.6-5.2c-7.6-3.1-12.7-7.2-15.3-12.3c-2.6-5.1-3.9-11.5-3.9-19.2c0-4.6,0.6-9,1.9-13.1
			c1.3-4.1,3.2-7.7,5.7-10.7c2.4-3,5.5-5.4,9.2-7.2c3.7-1.8,8.2-2.7,13.4-2.7c4.4,0,8.4,0.8,12,2.4c3.6,1.6,6.8,3.7,9.4,6.4
			c5.3,5.5,7.9,11.8,7.9,19v5.2C217.1,256.1,215.5,257.7,213.6,257.6L213.6,257.6z"/>
		<path d="M229.1,251.2c0-4.9,0.9-9.3,2.6-13.1c1.7-3.8,4-7,6.9-9.5c2.8-2.4,5.9-4.2,9.4-5.5c3.5-1.3,7-1.9,10.6-1.9
			s7.1,0.6,10.6,1.9c3.5,1.3,6.7,3.1,9.6,5.5c2.8,2.5,5,5.7,6.7,9.5c1.7,3.8,2.6,8.2,2.6,13.1v2.8c0,1.9-1.5,3.5-3.5,3.5H274
			c-1.9,0-3.5-1.6-3.5-3.5v-2.8c0-4.2-1.2-7.4-3.5-9.4c-2.4-2-5.1-3-8.4-3s-6,1-8.4,3c-2.4,2-3.5,5.1-3.5,9.4v64.8
			c0,4.2,1.2,7.4,3.5,9.4c2.4,2,5.1,3,8.4,3s6-1,8.4-3c2.4-2,3.5-5.1,3.5-9.4v-19.6c0-1.9-1.5-3.5-3.5-3.5H260
			c-1.9,0-3.5-1.5-3.5-3.5v-8.6c0-1.9,1.5-3.5,3.5-3.5h24.6c1.9,0,3.5,1.5,3.5,3.5v35.2c0,5.2-0.9,9.6-2.6,13.3
			c-1.7,3.7-4,6.7-6.7,9.1c-2.9,2.5-6.1,4.4-9.6,5.7c-3.5,1.3-7,1.9-10.6,1.9s-7.1-0.6-10.6-1.9c-3.5-1.3-6.6-3.2-9.4-5.7
			c-2.9-2.4-5.2-5.5-6.9-9.1c-1.7-3.7-2.6-8.1-2.6-13.3L229.1,251.2L229.1,251.2z"/>
		<path d="M303,341.6V225.7c0-1.9,1.5-3.5,3.5-3.5h11c1.5,0,2.8,0.9,3.2,2.3l25.7,71.7h0.3v-70.5c0-1.9,1.5-3.5,3.5-3.5h10.7
			c1.9,0,3.5,1.6,3.5,3.5v115.9c0,1.9-1.5,3.5-3.5,3.5h-10.7c-1.5,0-2.8-0.9-3.2-2.3l-26.1-71.5h-0.3v70.4c0,1.9-1.5,3.5-3.5,3.5
			h-10.7C304.5,345.1,303,343.5,303,341.6L303,341.6z"/>
		<path d="M136.5,401.7h-10.7c-1.9,0-3.5-1.5-3.5-3.5v-0.5c0-4-0.9-7.5-2.8-10.4s-5.1-4.4-9.6-4.4c-2.4,0-4.4,0.5-5.9,1.4
			c-1.5,0.9-2.7,2.1-3.6,3.5c-0.9,1.5-1.6,3.2-1.9,5.1c-0.3,1.9-0.5,3.9-0.5,6c0,2.4,0.1,4.4,0.3,6c0.2,1.6,0.6,3,1.3,4.3
			c0.7,1.3,1.7,2.4,3,3.3s3.1,1.8,5.4,2.8l13.4,5.4c3.9,1.5,7.1,3.2,9.5,5.3c2.4,2,4.3,4.3,5.7,7c1.3,2.8,2.1,5.9,2.6,9.4
			c0.5,3.5,0.7,7.5,0.7,12c0,5.2-0.5,10-1.6,14.4c-1,4.4-2.7,8.2-5,11.3c-2.4,3.2-5.6,5.8-9.5,7.6c-3.9,1.8-8.7,2.8-14.3,2.8
			c-4.3,0-8.2-0.8-11.9-2.2s-6.8-3.6-9.5-6.2c-2.7-2.6-4.7-5.7-6.3-9.2s-2.3-7.3-2.3-11.5V458c0-1.9,1.6-3.5,3.5-3.5h10.7
			c1.9,0,3.5,1.5,3.5,3.5v2.1c0,3.2,0.9,6.1,2.8,8.7s5.1,3.9,9.6,3.9c3,0,5.3-0.4,7-1.3c1.7-0.9,3-2.1,3.9-3.7s1.5-3.5,1.6-5.8
			s0.3-4.7,0.3-7.5c0-3.2-0.1-5.9-0.3-7.9c-0.2-2.1-0.7-3.7-1.4-5c-0.8-1.3-1.9-2.3-3.2-3.1c-1.3-0.8-3.1-1.7-5.3-2.6l-12.6-5.2
			c-7.6-3.1-12.7-7.2-15.3-12.3c-2.6-5.1-3.9-11.5-3.9-19.2c0-4.6,0.6-9,1.9-13.1c1.3-4.1,3.2-7.7,5.7-10.7c2.4-3,5.5-5.4,9.2-7.2
			c3.7-1.8,8.2-2.7,13.4-2.7c4.4,0,8.4,0.8,12,2.4c3.6,1.6,6.8,3.7,9.4,6.4c5.3,5.5,7.9,11.8,7.9,19v5.2
			C140,400.2,138.5,401.8,136.5,401.7L136.5,401.7z"/>
		<path d="M153.1,485.7V369.8c0-1.9,1.6-3.5,3.5-3.5h10.7c1.9,0,3.5,1.5,3.5,3.5v45.7c0,1.9,1.6,3.5,3.5,3.5H189
			c1.9,0,3.5-1.5,3.5-3.5v-45.7c0-1.9,1.6-3.5,3.5-3.5h10.7c1.9,0,3.5,1.5,3.5,3.5v115.9c0,1.9-1.6,3.5-3.5,3.5h-10.7
			c-1.9,0-3.5-1.5-3.5-3.5V438c0-1.9-1.6-3.5-3.5-3.5h-14.8c-1.9,0-3.5,1.5-3.5,3.5v47.8c0,1.9-1.6,3.5-3.5,3.5h-10.7
			C154.6,489.2,153.1,487.6,153.1,485.7L153.1,485.7z"/>
		<path d="M225.5,395.4c0-4.9,0.9-9.3,2.6-13.1c1.7-3.8,4-7,6.9-9.5c2.8-2.4,5.9-4.2,9.4-5.5c3.5-1.3,7-1.9,10.6-1.9
			s7.1,0.6,10.6,1.9c3.5,1.3,6.7,3.1,9.6,5.5c2.8,2.5,5,5.7,6.7,9.5c1.7,3.8,2.6,8.2,2.6,13.1v64.9c0,5.2-0.9,9.6-2.6,13.3
			c-1.7,3.7-4,6.7-6.7,9.1c-2.9,2.5-6.1,4.4-9.6,5.7c-3.5,1.3-7,1.9-10.6,1.9s-7.1-0.6-10.6-1.9c-3.5-1.3-6.6-3.2-9.4-5.7
			c-2.9-2.4-5.2-5.5-6.9-9.1c-1.7-3.7-2.6-8.1-2.6-13.3L225.5,395.4L225.5,395.4z M243.1,460.2c0,4.2,1.2,7.4,3.5,9.4
			c2.4,2,5.1,3,8.4,3c3.2,0,6-1,8.4-3c2.4-2,3.5-5.1,3.5-9.4v-64.9c0-4.2-1.2-7.4-3.5-9.4c-2.4-2-5.1-3-8.4-3s-6,1-8.4,3
			c-2.4,2-3.5,5.1-3.5,9.4V460.2z"/>
		<path d="M364.4,369.8v115.9c0,1.9-1.5,3.5-3.5,3.5h-7.6c-1.5,0-2.9-1-3.3-2.5l-17.6-62.5H332l-17.5,62.5c-0.4,1.5-1.8,2.5-3.3,2.5
			h-7.8c-1.9,0-3.5-1.5-3.5-3.5V369.8c0-1.9,1.5-3.5,3.5-3.5h7.4c1.9,0,3.5,1.5,3.5,3.5V441h0.3l13.4-50.2c0.4-1.5,1.8-2.6,3.3-2.6
			h1.8c1.6,0,2.9,1.1,3.3,2.6l13.3,50.2h0.3v-71.2c0-1.9,1.5-3.5,3.5-3.5h7.4C362.8,366.4,364.4,367.9,364.4,369.8L364.4,369.8z"/>
	</g>
	<text transform="matrix(1 0 0 1 219.73 578.6)" class="st2 st3 st4">2</text>
	<text transform="matrix(1 0 0 1 254.05 578.6)" class="st2 st3 st5">0</text>
	<text transform="matrix(1 0 0 1 290.61 578.6)" class="st2 st3 st4">2</text>
	<text transform="matrix(1 0 0 1 325.11 578.6)" class="st2 st3">3</text>
</g>
</svg>
